<mxfile host="65bd71144e">
    <diagram id="wleXDkbhm_6Zuc-ugeMy" name="Page-1">
        <mxGraphModel dx="1728" dy="499" grid="1" gridSize="10" guides="1" tooltips="1" connect="1" arrows="1" fold="1" page="1" pageScale="1" pageWidth="850" pageHeight="1100" math="0" shadow="0">
            <root>
                <mxCell id="0"/>
                <mxCell id="1" parent="0"/>
                <mxCell id="46" style="edgeStyle=none;html=1;strokeColor=#000000;" edge="1" parent="1" source="2" target="7">
                    <mxGeometry relative="1" as="geometry"/>
                </mxCell>
                <mxCell id="2" value="" style="shape=actor;whiteSpace=wrap;html=1;fillColor=#66B2FF;strokeColor=#000000;" vertex="1" parent="1">
                    <mxGeometry x="-780" y="55" width="70" height="110" as="geometry"/>
                </mxCell>
                <mxCell id="3" value="" style="ellipse;whiteSpace=wrap;html=1;aspect=fixed;labelBackgroundColor=none;strokeColor=#0e8088;fillColor=#b0e3e6;strokeWidth=2;" vertex="1" parent="1">
                    <mxGeometry x="-770" y="515" width="50" height="50" as="geometry"/>
                </mxCell>
                <mxCell id="4" value="" style="swimlane;childLayout=stackLayout;resizeParent=1;resizeParentMax=0;startSize=20;html=1;fillColor=#3399FF;fontColor=#000000;strokeColor=#006EAF;" vertex="1" parent="1">
                    <mxGeometry x="-660" y="30" width="900" height="580" as="geometry"/>
                </mxCell>
                <mxCell id="5" value="Controller" style="swimlane;startSize=20;html=1;fillColor=#CCCCFF;fontColor=#000000;strokeColor=#0a0a0a;gradientColor=none;swimlaneFillColor=#CCCCFF;" vertex="1" parent="4">
                    <mxGeometry y="20" width="200" height="560" as="geometry"/>
                </mxCell>
                <mxCell id="6" style="edgeStyle=none;html=1;exitX=0.5;exitY=1;exitDx=0;exitDy=0;exitPerimeter=0;entryX=0.5;entryY=0;entryDx=0;entryDy=0;entryPerimeter=0;strokeColor=#000000;fontColor=#000000;" edge="1" parent="5" source="7" target="9">
                    <mxGeometry relative="1" as="geometry"/>
                </mxCell>
                <mxCell id="7" value="&lt;span style=&quot;color: rgb(0, 0, 0);&quot;&gt;Initialisatie&lt;/span&gt;" style="shape=note;whiteSpace=wrap;html=1;backgroundOutline=1;darkOpacity=0.05;strokeColor=#36393d;fillColor=#ffff88;" vertex="1" parent="5">
                    <mxGeometry x="30" y="30" width="150" height="60" as="geometry"/>
                </mxCell>
                <mxCell id="8" style="edgeStyle=none;html=1;exitX=0.5;exitY=1;exitDx=0;exitDy=0;exitPerimeter=0;strokeColor=#000000;fontColor=#000000;" edge="1" parent="5" source="9" target="10">
                    <mxGeometry relative="1" as="geometry">
                        <mxPoint x="105" y="210" as="targetPoint"/>
                    </mxGeometry>
                </mxCell>
                <mxCell id="9" value="&lt;font color=&quot;#000000&quot;&gt;Boodschappenlijst&lt;br&gt;ophalen&lt;/font&gt;" style="shape=note;whiteSpace=wrap;html=1;backgroundOutline=1;darkOpacity=0.05;strokeColor=#36393d;fillColor=#ffff88;" vertex="1" parent="5">
                    <mxGeometry x="30" y="120" width="150" height="60" as="geometry"/>
                </mxCell>
                <mxCell id="10" value="Boodschappenlijst&lt;br&gt;tonen" style="shape=note;whiteSpace=wrap;html=1;backgroundOutline=1;darkOpacity=0.05;strokeColor=#36393d;fillColor=#ffff88;fontColor=#000000;labelBackgroundColor=none;" vertex="1" parent="5">
                    <mxGeometry x="30" y="460" width="150" height="60" as="geometry"/>
                </mxCell>
                <mxCell id="11" value="&lt;font color=&quot;#000000&quot;&gt;Business Logic&lt;/font&gt;" style="swimlane;startSize=20;html=1;fillColor=#6666FF;strokeColor=#000000;swimlaneFillColor=#6666FF;fontColor=#ffffff;" vertex="1" parent="4">
                    <mxGeometry x="200" y="20" width="500" height="560" as="geometry"/>
                </mxCell>
                <mxCell id="12" style="edgeStyle=none;html=1;exitX=0.5;exitY=1;exitDx=0;exitDy=0;exitPerimeter=0;entryX=0;entryY=0.5;entryDx=0;entryDy=0;entryPerimeter=0;fontColor=#000000;strokeColor=#000000;" edge="1" parent="11" source="17" target="19">
                    <mxGeometry relative="1" as="geometry"/>
                </mxCell>
                <mxCell id="13" style="edgeStyle=none;html=1;entryX=0;entryY=0.5;entryDx=0;entryDy=0;entryPerimeter=0;strokeColor=#000000;fontColor=#000000;exitX=0.5;exitY=1;exitDx=0;exitDy=0;exitPerimeter=0;" edge="1" parent="11" source="17">
                    <mxGeometry relative="1" as="geometry">
                        <mxPoint x="270" y="330" as="targetPoint"/>
                    </mxGeometry>
                </mxCell>
                <mxCell id="14" style="edgeStyle=none;html=1;entryX=0;entryY=0.5;entryDx=0;entryDy=0;entryPerimeter=0;strokeColor=#000000;fontColor=#000000;exitX=0.5;exitY=1;exitDx=0;exitDy=0;exitPerimeter=0;" edge="1" parent="11" source="17" target="21">
                    <mxGeometry relative="1" as="geometry"/>
                </mxCell>
                <mxCell id="15" style="edgeStyle=none;html=1;entryX=0;entryY=0.5;entryDx=0;entryDy=0;entryPerimeter=0;strokeColor=#000000;fontColor=#000000;exitX=0.5;exitY=1;exitDx=0;exitDy=0;exitPerimeter=0;" edge="1" parent="11" source="17" target="22">
                    <mxGeometry relative="1" as="geometry"/>
                </mxCell>
                <mxCell id="16" style="edgeStyle=none;html=1;exitX=0;exitY=0;exitDx=150;exitDy=30;exitPerimeter=0;strokeColor=#000000;fontColor=#000000;" edge="1" parent="11" source="17" target="18">
                    <mxGeometry relative="1" as="geometry"/>
                </mxCell>
                <mxCell id="17" value="&lt;font color=&quot;#000000&quot;&gt;Selecteer user&lt;/font&gt;" style="shape=note;whiteSpace=wrap;html=1;backgroundOutline=1;darkOpacity=0.05;strokeColor=#36393d;fillColor=#ffff88;" vertex="1" parent="11">
                    <mxGeometry x="32.5" y="120" width="150" height="60" as="geometry"/>
                </mxCell>
                <mxCell id="18" value="&lt;font color=&quot;#000000&quot;&gt;ophalen&lt;br&gt;ingredient&lt;/font&gt;" style="shape=note;whiteSpace=wrap;html=1;backgroundOutline=1;darkOpacity=0.05;strokeColor=#36393d;fillColor=#ffff88;" vertex="1" parent="11">
                    <mxGeometry x="270" y="120" width="150" height="60" as="geometry"/>
                </mxCell>
                <mxCell id="19" value="&lt;font color=&quot;#000000&quot;&gt;ophalen&lt;br&gt;user&lt;/font&gt;" style="shape=note;whiteSpace=wrap;html=1;backgroundOutline=1;darkOpacity=0.05;strokeColor=#36393d;fillColor=#ffff88;" vertex="1" parent="11">
                    <mxGeometry x="270" y="230" width="150" height="60" as="geometry"/>
                </mxCell>
                <mxCell id="21" value="&lt;font color=&quot;#000000&quot;&gt;bereken&lt;br&gt;prijs&lt;/font&gt;" style="shape=note;whiteSpace=wrap;html=1;backgroundOutline=1;darkOpacity=0.05;strokeColor=#36393d;fillColor=#ffff88;" vertex="1" parent="11">
                    <mxGeometry x="270" y="400" width="150" height="60" as="geometry"/>
                </mxCell>
                <mxCell id="22" value="&lt;font color=&quot;#000000&quot;&gt;bereken&lt;br&gt;aantal&lt;/font&gt;" style="shape=note;whiteSpace=wrap;html=1;backgroundOutline=1;darkOpacity=0.05;strokeColor=#36393d;fillColor=#ffff88;" vertex="1" parent="11">
                    <mxGeometry x="270" y="470" width="150" height="60" as="geometry"/>
                </mxCell>
                <mxCell id="23" value="&lt;font color=&quot;#000000&quot;&gt;Model&lt;/font&gt;" style="swimlane;startSize=20;html=1;fillColor=#99CCFF;swimlaneFillColor=#99CCFF;strokeColor=#000000;" vertex="1" parent="4">
                    <mxGeometry x="700" y="20" width="200" height="560" as="geometry"/>
                </mxCell>
                <mxCell id="24" value="GERECHT" style="swimlane;labelBackgroundColor=none;strokeColor=#10739e;fillColor=#b1ddf0;fontColor=#000000;startSize=23;" vertex="1" parent="23">
                    <mxGeometry x="40" y="40" width="140" height="180" as="geometry"/>
                </mxCell>
                <mxCell id="25" value="&lt;font color=&quot;#000000&quot;&gt;gerecht_id&lt;br&gt;keuken_id&lt;br&gt;type_id&lt;br&gt;user_id&lt;br&gt;datum_toegevoegd&lt;br&gt;titel&lt;br&gt;korte_omschrijving&lt;br&gt;lange_omschrijving&lt;br&gt;afbeelding&lt;br&gt;&lt;br&gt;&lt;/font&gt;" style="text;html=1;strokeColor=none;fillColor=none;align=center;verticalAlign=middle;whiteSpace=wrap;rounded=0;" vertex="1" parent="24">
                    <mxGeometry x="10" y="40" width="120" height="130" as="geometry"/>
                </mxCell>
                <mxCell id="26" value="&lt;font color=&quot;#000000&quot;&gt;Selecteer &lt;br&gt;ingredient&lt;/font&gt;" style="shape=note;whiteSpace=wrap;html=1;backgroundOutline=1;darkOpacity=0.05;strokeColor=#36393d;fillColor=#ffff88;" vertex="1" parent="23">
                    <mxGeometry x="35" y="250" width="150" height="60" as="geometry"/>
                </mxCell>
                <mxCell id="27" value="&lt;font color=&quot;#000000&quot;&gt;Selecteer&lt;br&gt;user&lt;br&gt;&lt;/font&gt;" style="shape=note;whiteSpace=wrap;html=1;backgroundOutline=1;darkOpacity=0.05;strokeColor=#36393d;fillColor=#ffff88;" vertex="1" parent="23">
                    <mxGeometry x="35" y="350" width="150" height="60" as="geometry"/>
                </mxCell>
                <mxCell id="28" style="edgeStyle=none;html=1;entryX=0.5;entryY=0;entryDx=0;entryDy=0;entryPerimeter=0;strokeColor=#000000;fontColor=#000000;" edge="1" parent="4" target="17">
                    <mxGeometry relative="1" as="geometry">
                        <Array as="points">
                            <mxPoint x="308" y="118"/>
                        </Array>
                        <mxPoint x="740" y="118" as="sourcePoint"/>
                    </mxGeometry>
                </mxCell>
                <mxCell id="29" style="edgeStyle=none;html=1;entryX=0;entryY=0;entryDx=150;entryDy=30;entryPerimeter=0;strokeColor=#000000;fontColor=#000000;" edge="1" parent="4" source="17" target="9">
                    <mxGeometry relative="1" as="geometry"/>
                </mxCell>
                <mxCell id="30" style="edgeStyle=none;html=1;exitX=0;exitY=0.5;exitDx=0;exitDy=0;exitPerimeter=0;strokeColor=#000000;fontColor=#000000;entryX=0;entryY=0;entryDx=150;entryDy=30;entryPerimeter=0;" edge="1" parent="4" source="26" target="18">
                    <mxGeometry relative="1" as="geometry">
                        <Array as="points">
                            <mxPoint x="680" y="300"/>
                            <mxPoint x="680" y="170"/>
                        </Array>
                    </mxGeometry>
                </mxCell>
                <mxCell id="31" style="edgeStyle=none;html=1;exitX=0;exitY=0.5;exitDx=0;exitDy=0;exitPerimeter=0;strokeColor=#000000;fontColor=#000000;entryX=0;entryY=0;entryDx=150;entryDy=45;entryPerimeter=0;" edge="1" parent="4" source="27">
                    <mxGeometry relative="1" as="geometry">
                        <mxPoint x="620" y="365" as="targetPoint"/>
                    </mxGeometry>
                </mxCell>
                <mxCell id="32" style="edgeStyle=none;html=1;strokeColor=#000000;fontColor=#000000;entryX=0;entryY=0;entryDx=150;entryDy=30;entryPerimeter=0;exitX=0;exitY=0.5;exitDx=0;exitDy=0;exitPerimeter=0;" edge="1" parent="4" source="27" target="19">
                    <mxGeometry relative="1" as="geometry">
                        <mxPoint x="730" y="380" as="sourcePoint"/>
                        <mxPoint x="670" y="360" as="targetPoint"/>
                    </mxGeometry>
                </mxCell>
                <mxCell id="33" value="" style="swimlane;childLayout=stackLayout;resizeParent=1;resizeParentMax=0;startSize=20;html=1;fillColor=#3399FF;fontColor=#000000;strokeColor=#006EAF;" vertex="1" parent="1">
                    <mxGeometry x="-660" y="640" width="900" height="210" as="geometry"/>
                </mxCell>
                <mxCell id="34" value="Controller" style="swimlane;startSize=20;html=1;fillColor=#CCCCFF;fontColor=#000000;strokeColor=#0a0a0a;gradientColor=none;swimlaneFillColor=#CCCCFF;" vertex="1" parent="33">
                    <mxGeometry y="20" width="200" height="190" as="geometry"/>
                </mxCell>
                <mxCell id="35" value="&lt;font color=&quot;#000000&quot;&gt;Business Logic&lt;/font&gt;" style="swimlane;startSize=20;html=1;fillColor=#6666FF;strokeColor=#000000;swimlaneFillColor=#6666FF;fontColor=#ffffff;" vertex="1" parent="33">
                    <mxGeometry x="200" y="20" width="500" height="190" as="geometry"/>
                </mxCell>
                <mxCell id="36" value="&lt;font color=&quot;#000000&quot;&gt;Model&lt;/font&gt;" style="swimlane;startSize=20;html=1;fillColor=#99CCFF;swimlaneFillColor=#99CCFF;strokeColor=#000000;" vertex="1" parent="33">
                    <mxGeometry x="700" y="20" width="200" height="190" as="geometry"/>
                </mxCell>
                <mxCell id="37" value="INGREDIENT" style="swimlane;labelBackgroundColor=none;strokeColor=#10739e;fillColor=#b1ddf0;fontColor=#000000;startSize=23;" vertex="1" parent="36">
                    <mxGeometry x="40" y="40" width="140" height="120" as="geometry"/>
                </mxCell>
                <mxCell id="38" value="&lt;font color=&quot;#000000&quot;&gt;ingredient_id&lt;br&gt;&lt;/font&gt;" style="text;html=1;strokeColor=none;fillColor=none;align=center;verticalAlign=middle;whiteSpace=wrap;rounded=0;" vertex="1" parent="37">
                    <mxGeometry x="15" y="20" width="110" height="110" as="geometry"/>
                </mxCell>
                <mxCell id="39" value="" style="swimlane;childLayout=stackLayout;resizeParent=1;resizeParentMax=0;startSize=20;html=1;fillColor=#3399FF;fontColor=#000000;strokeColor=#006EAF;" vertex="1" parent="1">
                    <mxGeometry x="320" y="690" width="900" height="210" as="geometry"/>
                </mxCell>
                <mxCell id="40" value="Controller" style="swimlane;startSize=20;html=1;fillColor=#CCCCFF;fontColor=#000000;strokeColor=#0a0a0a;gradientColor=none;swimlaneFillColor=#CCCCFF;" vertex="1" parent="39">
                    <mxGeometry y="20" width="200" height="190" as="geometry"/>
                </mxCell>
                <mxCell id="41" value="&lt;font color=&quot;#000000&quot;&gt;Business Logic&lt;/font&gt;" style="swimlane;startSize=20;html=1;fillColor=#6666FF;strokeColor=#000000;swimlaneFillColor=#6666FF;fontColor=#ffffff;" vertex="1" parent="39">
                    <mxGeometry x="200" y="20" width="500" height="190" as="geometry"/>
                </mxCell>
                <mxCell id="42" value="&lt;font color=&quot;#000000&quot;&gt;Model&lt;/font&gt;" style="swimlane;startSize=20;html=1;fillColor=#99CCFF;swimlaneFillColor=#99CCFF;strokeColor=#000000;" vertex="1" parent="39">
                    <mxGeometry x="700" y="20" width="200" height="190" as="geometry"/>
                </mxCell>
                <mxCell id="43" value="INGREDIENT" style="swimlane;labelBackgroundColor=none;strokeColor=#10739e;fillColor=#b1ddf0;fontColor=#000000;startSize=23;" vertex="1" parent="42">
                    <mxGeometry x="40" y="40" width="140" height="120" as="geometry"/>
                </mxCell>
                <mxCell id="44" value="&lt;font color=&quot;#000000&quot;&gt;ingredient_id&lt;br&gt;&lt;/font&gt;" style="text;html=1;strokeColor=none;fillColor=none;align=center;verticalAlign=middle;whiteSpace=wrap;rounded=0;" vertex="1" parent="43">
                    <mxGeometry x="15" y="20" width="110" height="110" as="geometry"/>
                </mxCell>
                <mxCell id="47" style="edgeStyle=none;html=1;strokeColor=#000000;" edge="1" parent="1" source="10" target="3">
                    <mxGeometry relative="1" as="geometry"/>
                </mxCell>
            </root>
        </mxGraphModel>
    </diagram>
</mxfile>